<?xml version="1.0" encoding="UTF-8" standalone="no"?>
<svg
   height="16"
   viewBox="0 0 16 16"
   width="16"
   version="1.1"
   id="svg2502"
   sodipodi:docname="LazyAnimationPlayer.svg"
   inkscape:version="1.2 (dc2aedaf03, 2022-05-15)"
   xmlns:inkscape="http://www.inkscape.org/namespaces/inkscape"
   xmlns:sodipodi="http://sodipodi.sourceforge.net/DTD/sodipodi-0.dtd"
   xmlns="http://www.w3.org/2000/svg"
   xmlns:svg="http://www.w3.org/2000/svg">
  <defs
     id="defs2506" />
  <sodipodi:namedview
     id="namedview2504"
     pagecolor="#ffffff"
     bordercolor="#000000"
     borderopacity="0.25"
     inkscape:showpageshadow="2"
     inkscape:pageopacity="0.0"
     inkscape:pagecheckerboard="0"
     inkscape:deskcolor="#d1d1d1"
     showgrid="false"
     inkscape:zoom="16"
     inkscape:cx="-5.59375"
     inkscape:cy="9.21875"
     inkscape:window-width="1280"
     inkscape:window-height="730"
     inkscape:window-x="-6"
     inkscape:window-y="-6"
     inkscape:window-maximized="1"
     inkscape:current-layer="svg2502" />
  <path
     id="rect10264-8"
     style="fill:#cea4f1;fill-opacity:1;stroke-width:0.95489;stroke-dasharray:none"
     d="M 5.2002524,12.12661 4.7739357,4.5548794 c 0,0 2.1760496,-0.8761655 2.2334551,-0.1325825 0.1323342,1.7141484 -0.5303301,6.4268151 -0.5303301,6.4268151 0,0 3.3898149,-0.547373 4.5534983,-0.353553 0.794362,0.132307 -0.192408,2.40824 -0.192408,2.40824 l -4.2131188,-0.608454 -0.035654,0.01027 z M 1,1 V 15 H 2.1667 V 13 H 4 v 2 h 8 v -2 h 2 v 2 h 1 V 1 H 14 V 3 H 12 V 1 H 4 V 3 H 2.1667 V 1 Z M 2.1667,5 H 4 V 7 H 2.1667 Z M 12,5 h 2 V 7 H 12 Z M 2.1667,9 H 4 v 2 H 2.1667 Z M 12,9 h 2 v 2 h -2 z" />
</svg>
